<svg id="bubbles" viewBox="0 0 1440 500" xmlns="http://www.w3.org/2000/svg" 
	xmlns="http://www.w3.org/2000/svg"  width="1440px" height="400" fill="none"
>
	<path opacity="0.302" d="M 1033.4535 209.8356 L 1048.1304 214.6786 L 1055.8268 223.2882 L 1058.8695 236.2026 L 1054.9319 251.9869 L 1046.6985 260.9553 L 1032.0216 264.722 L 1021.2825 263.1077 L 1008.7534 252.525 L 1005.1736 235.3058 L 1005.1736 228.6692 L 1010.5432 220.5977 L 1015.9128 214.4992 L 1025.0411 210.9118 L 1033.4535 209.8356 Z" stroke="#ffffff" stroke-width="2" />
		<path opacity="0.302" d="M 629.5745 321.0618 L 622.2393 318.6419 L 618.3927 314.34 L 616.8719 307.887 L 618.84 300.0001 L 622.9548 295.5189 L 630.2902 293.6368 L 635.6575 294.4434 L 641.9193 299.7313 L 643.7084 308.3351 L 643.7084 311.6512 L 641.0248 315.6843 L 638.3411 318.7316 L 633.7789 320.524 L 629.5745 321.0618 Z" stroke="#ffffff" stroke-width="2" />
		<path opacity="0.302" d="M 461.8387 112.882 L 454.5017 110.4611 L 450.6542 106.1573 L 449.1332 99.7017 L 451.1016 91.8114 L 455.2175 87.3283 L 462.5546 85.4454 L 467.9231 86.2524 L 474.1864 91.5424 L 475.976 100.15 L 475.976 103.4675 L 473.2917 107.5022 L 470.6074 110.5508 L 466.0441 112.344 L 461.8387 112.882 Z" stroke="#f2f256" stroke-width="2" />
		<path opacity="0.302" d="M 1337.0789 435.2177 L 1344.4021 437.6365 L 1348.2422 441.9364 L 1349.7605 448.3863 L 1347.7957 456.2695 L 1343.6875 460.7486 L 1336.3644 462.6298 L 1331.006 461.8236 L 1324.7544 456.5382 L 1322.9683 447.9384 L 1322.9683 444.6238 L 1325.6475 440.5927 L 1328.3268 437.5469 L 1332.8813 435.7552 L 1337.0789 435.2177 Z" stroke="#ffffff" stroke-width="2" />
		<path opacity="0.302" d="M 623.2997 133.4186 L 619.6396 132.21 L 617.7203 130.0615 L 616.9615 126.8387 L 617.9435 122.8997 L 619.9967 120.6616 L 623.6567 119.7216 L 626.3348 120.1245 L 629.4592 122.7654 L 630.3519 127.0625 L 630.3519 128.7187 L 629.0129 130.7329 L 627.6738 132.2548 L 625.3975 133.15 L 623.2997 133.4186 Z" stroke="#ffffff" stroke-width="2" />
		<path opacity="0.302" d="M 17.1484 449.3777 L 24.4855 451.7986 L 28.3329 456.1024 L 29.854 462.558 L 27.8856 470.4482 L 23.7697 474.9313 L 16.4326 476.8142 L 11.0641 476.0073 L 4.8008 470.7172 L 3.0112 462.1097 L 3.0112 458.7922 L 5.6955 454.7574 L 8.3798 451.7089 L 12.9431 449.9157 L 17.1484 449.3777 Z" stroke="#f2f256" stroke-width="2" />
		<path opacity="0.302" d="M 1146.2166 199.339 L 1142.5496 198.1293 L 1140.6267 195.9789 L 1139.8665 192.7532 L 1140.8502 188.8107 L 1142.9072 186.5706 L 1146.5742 185.6298 L 1149.2573 186.033 L 1152.3877 188.6763 L 1153.282 192.9772 L 1153.282 194.6349 L 1151.9404 196.6509 L 1150.5989 198.1741 L 1148.3184 199.0702 L 1146.2166 199.339 Z" stroke="#f2f256" stroke-width="2" />
		<path opacity="0.4" d="M 322.0643 121.5304 L 325.425 111.2801 L 331.3997 105.905 L 340.3616 103.78 L 351.3151 106.53 L 357.5387 112.2802 L 360.1526 122.5304 L 359.0323 130.0306 L 351.6885 138.7808 L 339.7393 141.2809 L 335.1338 141.2809 L 329.5326 137.5308 L 325.3005 133.7807 L 322.8111 127.4055 L 322.0643 121.5304 Z" stroke="#ffffff" stroke-width="2" />
		<path opacity="0.4" d="M 980.7228 489.7126 L 979.0432 494.8344 L 976.0571 497.5201 L 971.5781 498.582 L 966.1036 497.2079 L 962.9932 494.3347 L 961.6868 489.213 L 962.2467 485.4654 L 965.9171 481.0931 L 971.8892 479.8439 L 974.1909 479.8439 L 976.9902 481.7178 L 979.1053 483.5916 L 980.3495 486.777 L 980.7228 489.7126 Z" stroke="#ffffff" stroke-width="2" />
		<path opacity="0.4" d="M 1212.2253 455.085 L 1208.8708 465.3261 L 1202.9075 470.6965 L 1193.9624 472.8196 L 1183.0298 470.072 L 1176.8179 464.327 L 1174.209 454.0859 L 1175.3271 446.5923 L 1182.657 437.85 L 1194.5837 435.3521 L 1199.1804 435.3521 L 1204.771 439.0989 L 1208.9951 442.8456 L 1211.4799 449.2151 L 1212.2253 455.085 Z" stroke="#ffffff" stroke-width="2" />
		<path opacity="0.4" d="M 961.9229 397.7293 L 958.5621 407.9796 L 952.5875 413.3547 L 943.6256 415.4797 L 932.6721 412.7297 L 926.4485 406.9796 L 923.8346 396.7292 L 924.9548 389.2291 L 932.2987 380.4789 L 944.2479 377.9788 L 948.8534 377.9788 L 954.4546 381.7289 L 958.6866 385.479 L 961.1761 391.8541 L 961.9229 397.7293 Z" stroke="#f2f256" stroke-width="2" />
		<path opacity="0.4" d="M 713.0405 82.7365 L 711.3605 87.8604 L 708.3737 90.5473 L 703.8936 91.6096 L 698.4178 90.2349 L 695.3066 87.3605 L 694 82.2366 L 694.56 78.4875 L 698.2312 74.1134 L 704.2047 72.8637 L 706.507 72.8637 L 709.307 74.7383 L 711.4226 76.6129 L 712.6671 79.7997 L 713.0405 82.7365 Z" stroke="#ffffff" stroke-width="2" />
		<path opacity="0.4" d="M 40.9467 338.0231 L 42.6267 332.8993 L 45.6135 330.2123 L 50.0936 329.1501 L 55.5693 330.5248 L 58.6805 333.3992 L 59.9872 338.523 L 59.4272 342.2722 L 55.756 346.6462 L 49.7825 347.896 L 47.4802 347.896 L 44.6802 346.0214 L 42.5646 344.1468 L 41.3201 340.96 L 40.9467 338.0231 Z" stroke="#ffffff" stroke-width="2" />
		<path opacity="0.4" d="M 353.2933 312.9946 L 352.4537 315.5549 L 350.9609 316.8974 L 348.7219 317.4282 L 345.9852 316.7413 L 344.4302 315.3051 L 343.7772 312.7448 L 344.0571 310.8715 L 345.8918 308.6859 L 348.8773 308.0615 L 350.028 308.0615 L 351.4274 308.9982 L 352.4847 309.9348 L 353.1068 311.5272 L 353.2933 312.9946 Z" stroke="#ffffff" stroke-width="2" />
		<path opacity="0.4" d="M 1420.9465 270.1683 L 1419.2697 275.2877 L 1416.2886 277.9722 L 1411.8169 279.0335 L 1406.3516 277.66 L 1403.2461 274.7882 L 1401.942 269.6689 L 1402.501 265.9231 L 1406.1653 261.5529 L 1412.1274 260.3043 L 1414.4253 260.3043 L 1417.2202 262.1772 L 1419.3318 264.0501 L 1420.5739 267.2341 L 1420.9465 270.1683 Z" stroke="#f2f256" stroke-width="2" />
		<path opacity="0.4" d="M 1322.8687 201.9091 L 1323.7065 199.3512 L 1325.1965 198.0098 L 1327.4314 197.4795 L 1330.163 198.1658 L 1331.715 199.6007 L 1332.3667 202.1587 L 1332.0874 204.0303 L 1330.2561 206.214 L 1327.2762 206.8379 L 1326.1277 206.8379 L 1324.731 205.902 L 1323.6755 204.9662 L 1323.0548 203.3753 L 1322.8687 201.9091 Z" stroke="#f2f256" stroke-width="2" />
		<path opacity="0.702" d="M 545.1372 445.9856 L 540.9667 438.5552 L 541.5792 428.2162 L 548.5197 421.2519 L 558.4863 420.8402 L 566.1602 425.7006 L 569.5894 434.145 L 567.8333 442.39 L 560.3545 448.8141 L 552.5424 449.6298 L 545.1372 445.9856 Z" stroke="#f2f256" stroke-width="2" />
		<path opacity="0.702" d="M 1302.6921 60.5426 L 1304.7766 64.2553 L 1304.4705 69.4213 L 1301.0017 72.9012 L 1296.0205 73.1069 L 1292.1851 70.6783 L 1290.4713 66.4589 L 1291.3489 62.3392 L 1295.0868 59.1293 L 1298.9912 58.7216 L 1302.6921 60.5426 Z" stroke="#f2f256" stroke-width="2" />
		<path opacity="0.702" d="M 1232.7319 191.2708 L 1236.8945 198.6946 L 1236.2832 209.0244 L 1229.3557 215.9825 L 1219.408 216.3939 L 1211.7485 211.5378 L 1208.3259 203.1009 L 1210.0786 194.8633 L 1217.5432 188.4449 L 1225.3406 187.6298 L 1232.7319 191.2708 Z" stroke="#ffffff" stroke-width="2" />
		<path opacity="0.702" d="M 392.4786 447.8337 L 390.3982 444.1243 L 390.7037 438.9628 L 394.166 435.4861 L 399.1378 435.2805 L 402.9658 437.707 L 404.6764 441.9226 L 403.8004 446.0387 L 400.0697 449.2458 L 396.1727 449.653 L 392.4786 447.8337 Z" stroke="#ffffff" stroke-width="2" />
		<path opacity="0.702" d="M 527.987 192.1629 L 525.9022 188.4487 L 526.2084 183.2804 L 529.6779 179.7991 L 534.6603 179.5933 L 538.4965 182.0229 L 540.2107 186.2441 L 539.3329 190.3656 L 535.5942 193.5768 L 531.6889 193.9846 L 527.987 192.1629 Z" stroke="#f2f256" stroke-width="2" />
		<path opacity="0.702" d="M 285.7794 63.4059 L 286.8214 65.2618 L 286.6683 67.8442 L 284.9343 69.5837 L 282.4442 69.6865 L 280.5269 68.4725 L 279.6702 66.3633 L 280.1089 64.304 L 281.9775 62.6994 L 283.9293 62.4956 L 285.7794 63.4059 Z" stroke="#f2f256" stroke-width="2" />
		<path opacity="0.702" d="M 1151.9611 382.9779 L 1154.042 386.6889 L 1153.7363 391.8526 L 1150.2734 395.3307 L 1145.3003 395.5364 L 1141.4714 393.1089 L 1139.7605 388.8915 L 1140.6367 384.7737 L 1144.3683 381.5653 L 1148.2661 381.1579 L 1151.9611 382.9779 Z" stroke="#ffffff" stroke-width="2" />
		<path opacity="0.702" d="M 178.0002 319.0967 L 180.085 322.811 L 179.7788 327.9792 L 176.3093 331.4606 L 171.3269 331.6664 L 167.4907 329.2368 L 165.7765 325.0156 L 166.6543 320.8941 L 170.393 317.6828 L 174.2983 317.2751 L 178.0002 319.0967 Z" stroke="#ffffff" stroke-width="2" />
		<path opacity="0.702" d="M 1188.0745 128.1117 L 1185.9937 124.4008 L 1186.2992 119.2371 L 1189.7622 115.7589 L 1194.7352 115.5533 L 1198.5642 117.9807 L 1200.2751 122.1982 L 1199.3989 126.316 L 1195.6672 129.5244 L 1191.7694 129.9318 L 1188.0745 128.1117 Z" stroke="#f2f256" stroke-width="2" />
		<path opacity="0.702" d="M 1132.808 271.6559 L 1140.3671 269.6911 L 1149.3772 272.6986 L 1153.9121 280.5662 L 1151.9338 289.5833 L 1145.8267 295.2944 L 1137.5441 296.3546 L 1130.6567 292.8219 L 1126.7268 284.601 L 1127.8408 277.416 L 1132.808 271.6559 Z" stroke="#ffffff" stroke-width="2" />
		<path opacity="0.702" d="M 640.4229 509.1718 L 636.6449 510.1536 L 632.1418 508.6508 L 629.8753 504.7197 L 630.864 500.2141 L 633.9163 497.3604 L 638.0558 496.8307 L 641.498 498.5958 L 643.4621 502.7036 L 642.9054 506.2937 L 640.4229 509.1718 Z" stroke="#ffffff" stroke-width="2" />
		<path opacity="0.702" d="M 515.1191 354.0953 L 513.2268 354.5865 L 510.9714 353.8347 L 509.8363 351.8678 L 510.3315 349.6135 L 511.8602 348.1858 L 513.9336 347.9207 L 515.6575 348.8039 L 516.6414 350.8591 L 516.3625 352.6553 L 515.1191 354.0953 Z" stroke="#ffffff" stroke-width="2" />
		<path opacity="0.702" d="M 1045.6963 431.8454 L 1041.9175 432.8275 L 1037.4133 431.3242 L 1035.1464 427.3913 L 1036.1353 422.8839 L 1039.1882 420.029 L 1043.3287 419.4991 L 1046.7717 421.265 L 1048.7363 425.3744 L 1048.1794 428.966 L 1045.6963 431.8454 Z" stroke="#ffffff" stroke-width="2" />
		<path opacity="0.702" d="M 305.475 493.6106 L 307.3636 493.1199 L 309.6147 493.871 L 310.7477 495.8362 L 310.2535 498.0884 L 308.7277 499.5149 L 306.6583 499.7797 L 304.9375 498.8973 L 303.9556 496.844 L 304.2339 495.0493 L 305.475 493.6106 Z" stroke="#ffffff" stroke-width="2" />
		<path opacity="0.702" d="M 222.663 426.509 L 218.8771 427.4921 L 214.3643 425.9874 L 212.093 422.051 L 213.0838 417.5396 L 216.1426 414.6821 L 220.291 414.1517 L 223.7405 415.9192 L 225.7089 420.0323 L 225.1509 423.6271 L 222.663 426.509 Z" stroke="#f2f256" stroke-width="2" />
		<path opacity="0.702" d="M 864.4475 180.2747 L 866.3397 179.7835 L 868.5951 180.5354 L 869.7303 182.5023 L 869.2351 184.7565 L 867.7064 186.1843 L 865.6331 186.4493 L 863.9091 185.5661 L 862.9253 183.5109 L 863.2041 181.7147 L 864.4475 180.2747 Z" stroke="#f2f256" stroke-width="2" />
		<path opacity="0.702" d="M 680.1599 376.0981 L 678.2713 376.5889 L 676.0201 375.8377 L 674.8871 373.8726 L 675.3813 371.6204 L 676.9072 370.1938 L 678.9766 369.9291 L 680.6974 370.8115 L 681.6793 372.8648 L 681.401 374.6594 L 680.1599 376.0981 Z" stroke="#ffffff" stroke-width="2" />
		<path opacity="0.702" d="M 161.581 62.6751 L 164.1136 65.2888 L 165.0984 69.5272 L 164.606 74.8958 L 161.9327 78.4984 L 158.767 80.1231 L 156.6565 81.324 L 151.0989 81.324 L 146.1041 77.4388 L 143.9936 72.9179 L 143.9936 70.3749 L 144.8378 66.0659 L 148.2146 62.0394 L 154.546 60.0615 L 161.581 62.6751 Z" stroke="#ffffff" stroke-width="2" />
		<path opacity="0.702" d="M 260.9558 215.1221 L 259.6901 213.8161 L 259.1978 211.6983 L 259.4439 209.0158 L 260.78 207.2157 L 262.3622 206.4039 L 263.417 205.8038 L 266.1946 205.8038 L 268.691 207.7451 L 269.7457 210.0041 L 269.7457 211.2748 L 269.3238 213.4279 L 267.6362 215.4398 L 264.4717 216.428 L 260.9558 215.1221 Z" stroke="#ffffff" stroke-width="2" />
		<path opacity="0.702" d="M 792.4062 481.5845 L 789.8737 478.9708 L 788.8887 474.7325 L 789.3812 469.3639 L 792.0544 465.7612 L 795.2202 464.1365 L 797.3307 462.9357 L 802.8883 462.9357 L 807.8831 466.8209 L 809.9937 471.3418 L 809.9937 473.8848 L 809.1494 478.1938 L 805.7726 482.2203 L 799.4412 484.1982 L 792.4062 481.5845 Z" stroke="#ffffff" stroke-width="2" />
		<path opacity="0.702" d="M 730.6121 200.229 L 731.8778 201.535 L 732.3701 203.6528 L 732.124 206.3353 L 730.7878 208.1354 L 729.2057 208.9473 L 728.1509 209.5473 L 725.3733 209.5473 L 722.877 207.606 L 721.8221 205.347 L 721.8221 204.0764 L 722.2441 201.9232 L 723.9318 199.9114 L 727.0961 198.923 L 730.6121 200.229 Z" stroke="#ffffff" stroke-width="2" />
		<path opacity="0.702" d="M 773.413 274.0746 L 772.1469 272.7681 L 771.6545 270.6494 L 771.9008 267.9658 L 773.2371 266.1649 L 774.8197 265.3527 L 775.8748 264.7524 L 778.6531 264.7524 L 781.15 266.6945 L 782.205 268.9545 L 782.205 270.2257 L 781.783 272.3796 L 780.095 274.3924 L 776.9297 275.3811 L 773.413 274.0746 Z" stroke="#f2f256" stroke-width="2" />
		<path opacity="0.702" d="M 1109.605 349.4553 L 1110.2378 350.1082 L 1110.4839 351.1667 L 1110.3608 352.5077 L 1109.6929 353.4075 L 1108.902 353.8134 L 1108.3748 354.1133 L 1106.9861 354.1133 L 1105.7383 353.1429 L 1105.2109 352.0137 L 1105.2109 351.3785 L 1105.4219 350.3022 L 1106.2655 349.2965 L 1107.8474 348.8025 L 1109.605 349.4553 Z" stroke="#f2f256" stroke-width="2" />
		<path opacity="0.702" d="M 743.5742 400.6851 L 744.8403 401.9916 L 745.3326 404.1103 L 745.0864 406.7939 L 743.7501 408.5948 L 742.1675 409.407 L 741.1124 410.0073 L 738.3341 410.0073 L 735.8372 408.0651 L 734.7822 405.8052 L 734.7822 404.534 L 735.2042 402.38 L 736.8922 400.3672 L 740.0574 399.3785 L 743.5742 400.6851 Z" stroke="#f2f256" stroke-width="2" />
		<path opacity="0.702" d="M 1290.9683 377.6556 L 1290.3354 377.0027 L 1290.0894 375.9441 L 1290.2124 374.6031 L 1290.8804 373.7034 L 1291.6711 373.2975 L 1292.1985 372.9976 L 1293.5872 372.9976 L 1294.835 373.968 L 1295.3623 375.0972 L 1295.3623 375.7324 L 1295.1514 376.8087 L 1294.3077 377.8144 L 1292.7258 378.3084 L 1290.9683 377.6556 Z" stroke="#f2f256" stroke-width="2" />
		<path opacity="0.702" d="M 1422.2183 408.4847 L 1420.9546 407.1794 L 1420.4631 405.0626 L 1420.7087 402.3813 L 1422.0427 400.5821 L 1423.6223 399.7706 L 1424.6753 399.1709 L 1427.4484 399.1709 L 1429.9406 401.1113 L 1430.9937 403.3691 L 1430.9937 404.6392 L 1430.5723 406.7913 L 1428.8875 408.8023 L 1425.7283 409.7901 L 1422.2183 408.4847 Z" stroke="#ffffff" stroke-width="2" />
		<path opacity="0.702" d="M 904.4781 300.8513 L 901.3109 302.6298 L 896.9792 302.4839 L 891.9407 300.6105 L 889.1633 297.0797 L 888.4159 293.585 L 887.8043 291.2246 L 889.2363 285.8309 L 894.2614 281.9933 L 899.1549 281.1203 L 901.6017 281.7813 L 905.53 283.7207 L 908.5339 288.0445 L 908.8055 294.7033 L 904.4781 300.8513 Z" stroke="#ffffff" stroke-width="2" />
		<path opacity="0.702" d="M 387.5545 223.5486 L 385.9715 224.4373 L 383.8066 224.3644 L 381.2885 223.4283 L 379.9004 221.6641 L 379.5268 219.9179 L 379.2211 218.7385 L 379.9368 216.0435 L 382.4483 214.1259 L 384.894 213.6897 L 386.1169 214.02 L 388.0802 214.989 L 389.5815 217.1495 L 389.7172 220.4767 L 387.5545 223.5486 Z" stroke="#f2f256" stroke-width="2" />
		<path opacity="0.702" d="M 915.2802 50.5841 L 916.8635 49.6951 L 919.0289 49.768 L 921.5477 50.7045 L 922.9361 52.4695 L 923.3098 54.2165 L 923.6155 55.3963 L 922.8997 58.0925 L 920.3876 60.0108 L 917.9413 60.4473 L 916.7181 60.1168 L 914.7543 59.1474 L 913.2527 56.986 L 913.1168 53.6574 L 915.2802 50.5841 Z" stroke="#ffffff" stroke-width="2" />
		<path opacity="0.702" d="M 149.1642 462.6785 L 148.3728 463.1227 L 147.2906 463.0863 L 146.0317 462.6183 L 145.3378 461.7365 L 145.1511 460.8635 L 144.9983 460.274 L 145.3561 458.9268 L 146.6116 457.9683 L 147.8342 457.7502 L 148.4455 457.9153 L 149.427 458.3997 L 150.1775 459.4797 L 150.2454 461.1429 L 149.1642 462.6785 Z" stroke="#ffffff" stroke-width="2" />
		<path opacity="0.702" d="M 308.707 377.6755 L 307.1237 378.5646 L 304.9583 378.4916 L 302.4395 377.5552 L 301.0511 375.7902 L 300.6774 374.0432 L 300.3717 372.8633 L 301.0875 370.1672 L 303.5996 368.2488 L 306.0459 367.8124 L 307.269 368.1429 L 309.2329 369.1123 L 310.7345 371.2737 L 310.8704 374.6023 L 308.707 377.6755 Z" stroke="#ffffff" stroke-width="2" />
		<path opacity="0.702" d="M 1026.9026 333.1786 L 1027.694 332.7344 L 1028.7762 332.7708 L 1030.0352 333.2387 L 1030.729 334.1207 L 1030.9158 334.9935 L 1031.0686 335.5831 L 1030.7107 336.9303 L 1029.4553 337.8888 L 1028.2327 338.1069 L 1027.6213 337.9418 L 1026.6399 337.4573 L 1025.8894 336.3774 L 1025.8215 334.7142 L 1026.9026 333.1786 Z" stroke="#ffffff" stroke-width="2" />
		<path opacity="0.702" d="M 452.0552 374.686 L 451.2654 375.1298 L 450.1852 375.0934 L 448.9287 374.6259 L 448.2361 373.7448 L 448.0497 372.8727 L 447.8972 372.2836 L 448.2543 370.9377 L 449.5074 369.98 L 450.7278 369.7621 L 451.338 369.9271 L 452.3176 370.4111 L 453.0666 371.4901 L 453.1344 373.1518 L 452.0552 374.686 Z" stroke="#ffffff" stroke-width="2" />
		<path d="M 1022.488 76.4579 L 1024.9937 81.4415 L 1024.7682 85.601 L 1022.2672 89.6678 L 1017.2627 92.6821 L 1012.8938 92.8627 L 1008.2049 90.072 L 1005.8823 86.9168 L 1005.3787 81.0201 L 1008.8347 75.7195 L 1010.5178 74.0291 L 1013.9307 73.3452 L 1016.8431 73.1639 L 1020.0751 74.5826 L 1022.488 76.4579 Z" stroke="#f2f256" stroke-width="2" />
		<path d="M 462.4992 290.3018 L 459.9936 285.3182 L 460.219 281.1587 L 462.72 277.0919 L 467.7245 274.0776 L 472.0934 273.897 L 476.7823 276.6877 L 479.1049 279.8428 L 479.6085 285.7396 L 476.1525 291.0402 L 474.4694 292.7305 L 471.0565 293.4144 L 468.144 293.5958 L 464.9121 292.1771 L 462.4992 290.3018 Z" stroke="#ffffff" stroke-width="2" />
		<path d="M 819.649 344.3555 L 818.3965 341.8643 L 818.5092 339.7851 L 819.7595 337.7522 L 822.2612 336.2454 L 824.4453 336.1552 L 826.7893 337.5502 L 827.9503 339.1273 L 828.2021 342.075 L 826.4744 344.7246 L 825.6331 345.5696 L 823.927 345.9115 L 822.471 346.0021 L 820.8553 345.293 L 819.649 344.3555 Z" stroke="#ffffff" stroke-width="2" />
		<path d="M 1246.1946 294.8087 L 1247.4446 297.2976 L 1247.3322 299.375 L 1246.0842 301.4061 L 1243.5872 302.9116 L 1241.4072 303.0017 L 1239.0677 301.608 L 1237.9089 300.0322 L 1237.6576 297.0872 L 1239.3821 294.4399 L 1240.2217 293.5956 L 1241.9246 293.2541 L 1243.3779 293.1635 L 1244.9905 293.8721 L 1246.1946 294.8087 Z" stroke="#f2f256" stroke-width="2" />
		<path d="M 1375.7502 304.0991 L 1375.1255 302.8555 L 1375.1816 301.8175 L 1375.8053 300.8026 L 1377.0532 300.0504 L 1378.1428 300.0053 L 1379.312 300.7017 L 1379.8912 301.4891 L 1380.0168 302.9606 L 1379.155 304.2834 L 1378.7354 304.7053 L 1377.8843 304.8759 L 1377.158 304.9211 L 1376.3519 304.5671 L 1375.7502 304.0991 Z" stroke="#f2f256" stroke-width="2" />
		<path d="M 128.3381 249.4041 L 129.5906 251.8953 L 129.478 253.9745 L 128.2277 256.0075 L 125.726 257.5143 L 123.5419 257.6045 L 121.1979 256.2095 L 120.0369 254.6323 L 119.785 251.6846 L 121.5128 249.035 L 122.3541 248.1901 L 124.0602 247.8482 L 125.5162 247.7576 L 127.1318 248.4667 L 128.3381 249.4041 Z" stroke="#ffffff" stroke-width="2" />
	</svg>