<svg id="sun" class="" xmlns="http://www.w3.org/2000/svg" width="756" height="480">
	<path fill="#fec200" d="M395.5-341.5l205 67.4L708-154.24l42.5 179.77-55 219.7-115 124.85-205 52.43-150-22.4-175-147.3L.5 13.1v-92.4l75-112.37 75-84.87L278-326.52l117.5-14.98z" opacity=".3" class="ring"/>
	<path fill="#fec200" d="M109.5 26.58l46.94-142.68 83.45-74.82L365-220.5l153 38.28 86.92 80.04L641.5 40.5l-15.65 104.4-102.57 121.8-166.9 34.8h-64.33l-78.24-52.2-59.1-52.2-34.7-88.74-10.4-81.78z" opacity=".4" class="ring"/>

	<g fill="#fff" opacity=".7"> <path d="M372.55 312.6l.45 5.08-2.75.6-4.2-4.7 2-2.63 4.5 1.65z"/> <path d="M457.7 242.3l-3.8-1.12v-2.1l4.3-2.03 1.76 2.3-2.26 2.95z"/> <path d="M313.2 268.63l-3.48 2-1.47-1.55 1.6-4.73 2.86.4.5 3.88z"/> <path d="M590.76 42.7l4.03-.37.4 2.2-3.8 3.36-2.1-1.7 1.3-3.6z"/> <path d="M162 68.34l3.58-3.5 2.37 1.3-.3 6.03-3.68.52-1.97-4.4z"/> <path d="M555.95 90.12l1.6 2.78-1.24 1.17-3.7-1.27.3-2.3 3.1-.38z"/> <path d="M539.73 147.88l-5.02-.06-.7-2.6 4.5-4.06 3 2.25-1.6 4.5z"/> <path d="M462.82 227.4l1.06-3.85 2.13.05 2.2 4.43-2.3 1.76-3-2.4z"/> </g>
	<g fill="#fe9000" opacity=".7"> <path d="M521.2 53.77l1.73 6.3-3.16 1.7-6.56-4.72 2-4.1 6 .82z"/> <path d="M238.9 247.76l.1-6.3 3.27-.97 5.07 5.6-2.84 3.7-5.6-2.1z"/> <path d="M139.43 151.62l4.84 1.3-.08 2.68-5.6 2.78-2.2-2.9 3-3.86z"/> <path d="M99.68 95.45l-4.8 1.75-1.3-2.5 3.48-5.3 3.06 1.27-.44 4.78z"/> <path d="M189.68 159.96l.1-3.98 2.02-.54 3.1 3.64-1.78 2.32-3.44-1.44z"/> <path d="M653.45 57.9l-3.54-3.57 1.5-2.28 6.3.4.47 3.6-4.54 1.85z"/> <path d="M126.92 26.45l-2.84-2.85 1.13-1.83 5 .32.4 2.8-3.6 1.5z"/> </g>
	<g fill="#00d86b" opacity=".7"> <path d="M552.7 21.82l4.06 6.8-3.17 2.95-9.3-3.45 1-5.4 7.3-.9z"/> <path d="M283.17 335l-1.93-7.38 3.55-2.13 7.7 4.9-2.2 5.2-7.3-.7z"/> <path d="M135 253.93h6.13l.77 3.15-5.68 4.97-3.5-2.68 2.3-5.44z"/> </g>
	<g fill="#fec200" opacity=".7"> <path d="M41.87 106.3l-5.8 2.12-1.57-3.04 4.12-6.43 3.72 1.56-.47 5.8z"/> <path d="M151.4 184.84l.07-4.84 2.44-.65 3.8 4.43-2.1 2.8-4.1-1.74z"/> <path d="M710.63 62.23l-4.33-4.34 1.68-2.8 7.53.5.6 4.4-5.4 2.2z"/> <path d="M73.96 22.66L70.5 19.2l1.34-2.23 6.03.4.46 3.5-4.37 1.8z"/> <path d="M521.13 25.12l3.3 5.64-2.6 2.46-7.58-2.88.86-4.5 6.1-.72z"/> <path d="M298.37 284.9l-1.54-6.1 2.9-1.78 6.38 4.12-1.7 4.36-5.9-.6z"/> <path d="M177.15 217.35l5.02.02.62 2.6-4.7 4.13-2.9-2.24 1.9-4.5z"/> </g>

	<path fill="#fec200" d="M517.48-109.02L575.73-5.6l-8.55 143.92-96.94 96.94L331.02 241l-107.18-67.66-47.9-117.54 24.53-114.77 104.46-89.42 109.12-11.3L517.48-109z" opacity=".71" class="ring"/>
	<path fill="#fea700" d="M480.74 199.08l-105.8 27.38-126.07-41.9L185.4 74.94l27.7-125.62 85.45-79.57 115.9-14.77 96.4 49.22 55 114.53-15.6 100.1-69.5 80.25z" opacity=".72" class="ring"/>

	<g fill="#fec200" opacity=".7"> <path d="M460.97 166l-4.15 7.3-4.43-1.33-1.7-10.27 5.5-1.93 4.7 6.22z"/> <path d="M725.42 44.1l6.55-.56.77 3.53-6.06 5.43-3.4-2.6 2.14-5.8z"/> <path d="M27.66 85.5l5.84-5.65 3.85 2.1-.48 9.73-6 .84-3.2-7z"/> <path d="M668.77 120.66l2.6 4.47-2.02 1.9-6.1-2.05.52-3.7 5-.62z"/> <path d="M642.45 216.65l-8.13-.13-1.24-4.22 7.2-6.54 4.86 3.66-2.7 7.23z"/> <path d="M518.58 344.92l1.68-6.24 3.45.1 3.6 7.2-3.7 2.83-5-3.8z"/> <path d="M411.44 316.06l-4.5-4.62 1.67-3.06 7.8.38.7 4.76-5.6 2.54z"/> <path d="M269.14 318.45l4.46-2.55 1.9 1.98-2.05 6.04-3.7-.5-.6-4.97z"/> <path d="M226.17 26.1l-1.8-6.46 3.23-1.74 6.75 4.87-2.03 4.2-6.15-.87z"/> <path d="M146.94 243.34l-3.35 4-2.5-1.57.3-6.47 3.3-.42 2.1 4.46z"/> <path d="M259.75 254.7l-1.97-3.6 1.5-1.5 4.6 1.66-.36 2.96-3.77.48z"/> <path d="M135.4 168.27l-3.98-1.1.05-2.18 4.57-2.3 1.8 2.4-2.44 3.1z"/> <path d="M755.1 159.75l-9.5 2.48-2.74-4.57 6.37-10.03 6.77 2.74-.9 9.38z"/> <path d="M650.67 350.82v-7.9l4.06-1 6.4 7.34-3.46 4.53-7-3z"/> <path d="M690.46 140l-7.9 2-2.27-3.77 5.3-8.2 5.6 2.27-.8 7.7z"/> <path d="M603.42 296.33l.02-6.48 3.37-.8 5.3 6.05-2.8 3.7-5.8-2.47z"/> </g>
	<g fill="#00d86b" opacity=".7"> <path d="M234.75 201.16l-9.9-2.5.2-5.6 11.56-5.27 4 5.8-5.8 7.5z"/> <path d="M460.56 470.5l2.7 7.46-3.9 2.04-8.3-5.32 2.02-4.8 7.48.62z"/> <path d="M561.72 329.25l-6.23-.1-.9-3.14 5.7-4.8 3.6 2.8-2.3 5.4z"/> <path d="M352.78 429.12l-4.47 4.46-2.8-1.73.5-7.77 4.5-.6 2.3 5.64z"/> </g>
	<g fill="#009d9b" opacity=".7"> <path d="M259.57 171.56l-8.16-2.14.2-4.63 9.6-4.3 3.3 4.9-4.8 6.1z"/> <path d="M446.15 396.28l2.26 6.2-3.2 1.66-6.8-4.47 1.7-3.95 6.2.56z"/> <path d="M529.26 280.22l-5.13-.13-.7-2.7 4.7-4 2.98 2.3-1.8 4.4z"/> <path d="M357.26 361.16l-3.68 3.66-2.35-1.46.4-6.43 3.73-.46 1.9 4.7z"/> </g>

	<path fill="#fec200" d="M473.45-71.03l35.37 36.38 13.76 59-6.88 74.73-37.34 50.15-44.22 22.6-29.48 16.73h-77.62l-69.77-54.08-29.48-62.93v-35.4l11.8-59.98 47.1-56.05 88.4-27.53 98.2 36.3z" opacity=".75" class="ring"/>
	<path fill="#fe9000" d="M461.73 165.52l-44.24 24.76-60.5-2.03-70.4-26.08-38.8-49.15-10.5-48.64-8.6-32.86 20-75.07L319-96.97l68.35-12.15 34.17 9.2 54.87 27 41.9 60.18 3.8 92.7-60.5 85.56z" opacity=".75" class="ring"/>
	<path fill="#fff" d="M477.48-50.73l35 69.37-3.15 57.9-34.93 56.6-69.9 41.97-61.03 2.6-65.5-38.8L245.54 95l-7.04-82.1L286.78-61l23.5-23.53 47.67-9.52 40.7-2.53 45.13 19.75 33.7 26.1z" class="ring sunBody"/>
</svg>